<svg viewBox="0 0 512 590" xmlns="http://www.w3.org/2000/svg">
  <defs>
    <clipPath id="hull-clip">
      <polygon points="256,41 442,149 442,364 256,471 70,364 70,149"/>
    </clipPath>
    <radialGradient id="spoke-fade" cx="50%" cy="50%" r="50%">
      <stop offset="55%" stop-color="white" stop-opacity="1"/>
      <stop offset="100%" stop-color="white" stop-opacity="0.5"/>
    </radialGradient>
    <filter id="glow" x="-30%" y="-30%" width="160%" height="160%">
      <feGaussianBlur stdDeviation="4" result="blur"/>
      <feMerge>
        <feMergeNode in="blur"/>
        <feMergeNode in="SourceGraphic"/>
      </feMerge>
    </filter>
  </defs>
  <polygon points="256,28 453,143 453,371 256,484 59,371 59,143" fill="white"/>
  <polygon points="256,41 442,149 442,364 256,471 70,364 70,149" fill="#326CE5"/>
  <circle cx="256" cy="256" r="162" fill="none" stroke="white" stroke-width="18"
          stroke-dasharray="60 13" stroke-dashoffset="-6.5" clip-path="url(#hull-clip)"/>
  <g stroke="white" stroke-width="12" stroke-linecap="round">
    <line x1="256" y1="96"  x2="256" y2="211"/>
    <line x1="381" y1="156" x2="291" y2="228"/>
    <line x1="412" y1="292" x2="300" y2="266"/>
    <line x1="325" y1="400" x2="276" y2="297"/>
    <line x1="187" y1="400" x2="237" y2="297"/>
    <line x1="100" y1="292" x2="212" y2="266"/>
    <line x1="131" y1="156" x2="221" y2="228"/>
  </g>
  <circle cx="256" cy="256" r="44" fill="#326CE5" stroke="white" stroke-width="14"/>
  <ellipse cx="222" cy="228" rx="52" ry="30" transform="rotate(-45 222 228)"
           fill="none" stroke="#44BC8E" stroke-width="9" filter="url(#glow)"/>
  <ellipse cx="222" cy="228" rx="52" ry="30" transform="rotate(-45 222 228)"
           fill="#44BC8E" fill-opacity="0.18"/>
  <ellipse cx="290" cy="284" rx="52" ry="30" transform="rotate(-45 290 284)"
           fill="none" stroke="#44BC8E" stroke-width="9" filter="url(#glow)"/>
  <ellipse cx="290" cy="284" rx="52" ry="30" transform="rotate(-45 290 284)"
           fill="#44BC8E" fill-opacity="0.18"/>
  <polygon points="322,296 314,316 304,301" fill="#44BC8E" filter="url(#glow)"/>
  <circle cx="256" cy="256" r="9" fill="#44BC8E" filter="url(#glow)"/>
  <circle cx="256" cy="256" r="4" fill="white"/>
  <text x="256" y="520"
        font-family="'Inter','Helvetica Neue',Helvetica,Arial,sans-serif"
        font-size="40" font-weight="700" letter-spacing="-0.5"
        text-anchor="middle" fill="#326CE5">concourse</text>
  <text x="256" y="563"
        font-family="'Inter','Helvetica Neue',Helvetica,Arial,sans-serif"
        font-size="27" font-weight="400" letter-spacing="5"
        text-anchor="middle" fill="#44BC8E">operator</text>
</svg>
